<?xml version="1.0" encoding="UTF-8" standalone="no"?>
<!-- Created with Inkscape (http://www.inkscape.org/) -->

<svg
   width="180.62222mm"
   height="180.62222mm"
   viewBox="0 0 180.62222 180.62222"
   version="1.1"
   id="svg5"
   inkscape:version="1.1.2 (0a00cf5339, 2022-02-04)"
   sodipodi:docname="luig_ico.svg"
   xmlns:inkscape="http://www.inkscape.org/namespaces/inkscape"
   xmlns:sodipodi="http://sodipodi.sourceforge.net/DTD/sodipodi-0.dtd"
   xmlns="http://www.w3.org/2000/svg"
   xmlns:svg="http://www.w3.org/2000/svg">
  <sodipodi:namedview
     id="namedview7"
     pagecolor="#ffffff"
     bordercolor="#666666"
     borderopacity="1.0"
     inkscape:pageshadow="2"
     inkscape:pageopacity="0.0"
     inkscape:pagecheckerboard="0"
     inkscape:document-units="mm"
     showgrid="false"
     inkscape:snap-global="false"
     inkscape:zoom="0.6743757"
     inkscape:cx="472.28867"
     inkscape:cy="441.14875"
     inkscape:window-width="1920"
     inkscape:window-height="1048"
     inkscape:window-x="0"
     inkscape:window-y="1050"
     inkscape:window-maximized="1"
     inkscape:current-layer="layer1" />
  <defs
     id="defs2" />
  <g
     inkscape:label="Layer 1"
     inkscape:groupmode="layer"
     id="layer1"
     transform="translate(-18.496485,-31.664204)">
    <rect
       style="fill:#ffcc99;stroke-width:0.499999;stroke-linecap:round;stroke-linejoin:round;paint-order:fill markers stroke;fill-opacity:1"
       id="rect858"
       width="180.62222"
       height="180.62222"
       x="18.496485"
       y="31.664204" />
    <path
       style="fill:#ffffff;fill-opacity:1;stroke-width:1.88976;stroke-linecap:round;stroke-linejoin:round;paint-order:fill markers stroke"
       d="m 190.59874,495.98535 c -35.4929,0.76267 -72.2929,3.45447 -105.000356,18.3523 -37.655665,17.87394 -63.492152,52.34341 -83.5231215,87.73605 -6.3413967,9.69308 -1.54382402,22.45064 -3.0339038,33.46781 0.63712927,15.46448 -1.2767729,31.98563 0.9586413,46.78806 38.354791,-0.67543 76.875695,1.42543 115.13542,-1.32066 5.11147,-2.67986 0.52965,-10.53994 0.73843,-14.89074 -1.19828,-11.91625 -7.34526,-25.38062 -1.79844,-36.92223 4.88348,-6.23337 3.18466,5.09881 4.37616,8.79865 0.97289,13.87353 7.40472,28.19369 3.00915,41.82977 8.17667,3.87766 18.61235,1.25403 27.55716,2.30336 73.7468,0.40617 147.49586,0.0531 221.24355,0.10914 5.86428,-9.88203 15.84814,-19.68999 27.43278,-21.78809 -1.5629,7.81491 -9.19024,14.67142 -9.24177,21.88077 29.14364,-0.6646 58.50477,1.33403 87.52887,-1.10345 3.44086,-2.68174 -1.61604,-8.23314 -0.46594,-12.01738 -2.55706,-24.0782 -2.55473,-49.91379 -16.91594,-70.66301 -13.53826,-21.13747 -30.38667,-42.26489 -53.64735,-52.99196 -24.80902,-5.7129 -49.50868,8.17287 -74.43385,2.62458 -31.1602,-3.16748 -64.12855,-7.6189 -89.53339,-27.70023 -15.35816,-10.17057 -30.31671,-26.54208 -50.3861,-24.49274 z"
       id="path1564"
       transform="matrix(0.26458333,0,0,0.26458333,18.496485,31.664204)" />
    <path
       style="fill:#ffffff;fill-opacity:1;stroke-width:1.88976;stroke-linecap:round;stroke-linejoin:round;paint-order:fill markers stroke"
       d="m 382.56157,103.99375 c -19.00784,0.99596 -38.64182,-2.06608 -56.61196,5.71515 -35.13366,10.77255 -71.09332,23.42079 -98.61261,48.79128 -29.30362,24.08329 -53.38023,54.64927 -70.55716,88.40932 -6.83915,12.11886 -6.46523,26.97377 -13.253,38.80324 -6.04195,5.44711 -13.39274,-3.70485 -18.08096,-7.12174 -9.37885,-9.12646 -23.42912,-2.27676 -29.506452,7.19126 -17.736628,22.5232 -10.454777,54.56265 4.335602,76.616 5.18672,8.91974 14.24728,20.40548 25.95283,15.10366 6.56539,-1.72852 13.32624,-7.80048 18.98747,-8.72913 4.16029,31.37503 18.51265,60.69479 35.85781,86.83958 18.49904,22.58495 42.01282,40.59169 64.93153,58.46281 20.82262,14.06698 46.51282,20.88999 71.5286,20.82637 8.16728,-2.24759 15.41021,1.66037 22.80464,4.14446 16.66331,-0.15139 33.45769,-1.97661 50.03995,-3.94243 24.03847,-6.22033 48.09752,-13.82958 70.24492,-25.18463 22.10023,-15.23716 43.61194,-31.72801 60.9302,-52.46461 26.66745,-27.74338 41.29489,-64.12923 52.69052,-100.24897 4.25418,-19.50051 8.76999,-39.31828 9.31127,-59.30832 -6.51883,-30.00475 -8.81213,-61.29408 -22.07481,-89.47801 -5.9153,-12.82247 -8.00744,-28.22144 -20.54366,-36.62424 -23.94746,-25.18087 -52.96368,-45.77092 -86.04509,-56.99823 -15.71937,-4.87539 -30.90297,-13.81302 -47.86077,-11.18334 -8.15628,0.12684 -16.31257,0.25368 -24.46887,0.38052 z m 67.49879,35.45525 c 14.62266,3.25929 30.78609,4.30526 43.44006,12.83594 2.51108,2.20291 8.83549,7.01133 5.78949,10.46107 -8.09348,-3.60596 -15.14219,-9.98507 -24.3686,-11.26911 -8.36139,-3.29531 -20.25625,-2.609 -26.03681,-10.33363 -0.17139,-1.01044 -0.3996,-2.2028 1.17586,-1.69427 z m -102.14888,2.83537 c 16.70108,11.62591 36.05789,21.10691 48.70824,37.3986 2.28279,6.01268 -6.40355,-1.5795 -7.66913,-2.38068 -13.39797,-10.27068 -32.24669,-14.5255 -41.74288,-29.25448 -0.66849,-1.23497 -1.80564,-7.94936 0.70377,-5.76344 z m 58.79279,8.1557 c 4.60401,1.4958 -1.79873,6.02209 -1.57842,1.72323 0.21407,-0.73251 0.65111,-1.78629 1.57842,-1.72323 z m 8.12674,8.46558 c 15.07527,3.97201 29.66242,9.66682 44.94199,12.82966 14.83581,5.63333 31.68053,8.31367 44.3246,18.34501 -4.73569,2.37703 -12.81755,-0.13893 -18.10333,-2.3784 -22.11937,-8.64484 -45.79522,-13.44613 -67.07093,-24.06388 -0.88753,-0.79769 -5.92474,-4.58034 -4.09233,-4.73239 z M 292.69837,270.58012 c 9.86286,1.51795 13.5001,14.08929 10.60298,22.62509 -1.89055,9.77905 -7.39377,24.19887 -19.52037,22.62798 -12.72304,-3.1819 -13.15839,-19.23036 -9.1317,-29.18787 2.93397,-7.38164 9.53967,-15.30082 18.04909,-16.0652 z m 191.50235,25.44889 c 13.31581,0.43848 19.45797,16.50875 14.38542,27.41829 -3.38652,9.07356 -9.36703,20.28316 -19.7289,21.82863 -13.66843,0.60029 -17.45642,-16.45458 -15.10947,-27.1026 1.75179,-10.18817 9.30068,-21.40281 20.45295,-22.14432 z m -366.78889,7.18546 c 9.72691,1.0502 18.07039,10.74242 18.95561,20.07933 -6.81092,1.63724 -15.94131,-7.07149 -21.75044,-0.80804 -1.89493,3.56854 1.43976,11.35361 -3.71582,12.21906 -13.281994,-6.69013 -10.38881,-32.44703 6.51065,-31.49035 z m 218.01993,60.50735 c 4.0964,2.11119 2.9421,9.49557 7.78498,11.81358 6.45642,4.03278 13.15807,-4.1699 19.12649,-5.96906 3.24648,-0.97852 8.24749,-5.82995 11.25752,-3.79981 -3.49321,9.61666 5.5576,19.80105 15.56416,17.98828 7.27931,-0.007 14.42253,-8.52267 20.91982,-1.81792 5.99616,5.0451 15.0719,7.26984 21.31831,1.27343 3.95181,-5.6178 7.78646,-1.58699 9.17516,3.17713 1.33903,9.6395 -10.92368,12.88131 -18.41981,12.09452 -18.34848,-3.9537 -37.608,-4.37226 -55.31448,-11.25172 -10.39762,-3.56241 -22.97178,0.53015 -31.50483,-8.17307 -5.26298,-3.63267 -10.84497,-15.29771 0.0927,-15.33536 z m -0.92098,65.10652 c 20.43075,0.68278 40.84236,3.72503 61.16768,4.92064 3.58825,4.02962 1.07397,16.30281 -5.79239,12.62452 -19.64605,-8.15741 -45.20529,-1.69265 -61.69769,-16.69659 1.93822,-0.91458 4.22993,-0.74835 6.3224,-0.84857 z m 12.20167,23.81252 c 5.71927,2.10014 11.88102,2.93498 17.66391,4.38484 2.00723,5.96629 -7.22613,11.01622 -12.56661,9.47346 -5.02135,-1.21044 -14.92455,-0.58406 -15.2977,-7.40557 1.78205,-3.64474 6.11753,-6.62364 10.2004,-6.45273 z"
       id="path1486"
       transform="matrix(0.26458333,0,0,0.26458333,18.496485,31.664204)" />
    <path
       style="fill:#ffffff;fill-opacity:1;stroke-width:1.88976;stroke-linecap:round;stroke-linejoin:round;paint-order:fill markers stroke"
       d="m 594.31993,335.23193 c -8.91172,5.08575 -7.87879,17.88064 -10.41472,26.56102 -5.38167,21.90141 -15.59391,42.14425 -26.32643,61.8396 -2.11041,6.77003 8.17455,4.97822 11.58768,3.59129 17.25574,-5.34546 30.30185,-21.98498 33.77835,-39.35643 0.66424,-8.60367 6.09769,-16.45135 4.12418,-25.4373 -1.51061,-9.42963 -2.65357,-22.32483 -12.1032,-27.1866 -0.21367,-0.0307 -0.43121,-0.0327 -0.64586,-0.0116 z"
       id="path1525"
       transform="matrix(0.26458333,0,0,0.26458333,18.496485,31.664204)" />
    <path
       style="fill:#e6e6e6;stroke:none;stroke-width:0.264583px;stroke-linecap:butt;stroke-linejoin:miter;stroke-opacity:1"
       d="m 142.45801,61.802547 c 4.29925,2.169414 7.02758,6.392558 9.23556,10.537624 7.67706,14.41223 6.28997,31.331449 1.92589,46.526559 -5.44389,18.95488 -12.12644,35.09152 -26.41546,49.11746 -2.26458,2.22288 -4.90924,4.73226 -7.81303,6.13972 -0.88566,0.42928 -1.76942,0.77667 -2.71375,1.04502 -0.0583,0.0166 -0.91918,0.20208 -0.91918,0.21772 0,0.27449 0.55216,0.0988 0.78786,0.23951 0.64504,0.38499 1.25602,0.89515 1.79459,1.41519 2.92938,2.8286 5.9908,8.7742 7.50663,12.49706 1.79477,4.40795 2.61013,9.44891 2.91073,14.17351 0.092,1.44556 -0.49162,7.09231 0.18529,8.43873 3.8371,-0.0906 14.54299,0.98825 17.4548,-0.1443 0.9063,-0.541 -0.23106,-4.4384 -0.32888,-5.28985 -0.64245,-5.59268 -1.32736,-12.35933 -4.48646,-17.17806 -2.03551,-3.10486 -5.09673,-5.66664 -7.79113,-8.18623 -0.21835,-0.20418 -6.71361,-6.46492 -6.43426,-6.90169 1.33414,-2.08599 11.9766,-5.22857 15.05703,-7.05414 5.65399,-3.35074 11.04615,-8.12657 15.31965,-13.10669 2.26593,-2.6406 4.07946,-6.17334 6.89384,-8.27334 0.28066,-0.20943 3.28175,0.18186 4.18008,0.0653 2.71647,-0.35241 5.82403,-2.00264 7.70359,-4.00604 3.12104,-3.32667 5.74014,-15.15108 3.67671,-19.37701 -0.80924,-1.65734 -4.03507,-2.79768 -4.46457,-4.50677 -0.2602,-1.0354 0.0187,-2.5103 0,-3.5706 -0.0746,-4.22941 -0.13559,-8.72115 -0.8973,-12.88897 -2.45622,-13.439757 -9.80913,-28.445664 -22.08219,-35.422939"
       id="path1669"
       sodipodi:nodetypes="csssssscssscccsssssscsssssc" />
    <path
       style="fill:#000000;stroke-width:1"
       d="m 49.43084,212.02184 c 0.751729,-4.34717 -3.993296,-13.54821 0.307578,-14.6651 -0.965474,3.61309 3.93386,13.89274 -0.307578,14.6651 z m 67.14957,0 c 1.66165,-3.6113 10.89063,-9.76376 5.63274,-2.27674 -0.77334,2.49349 -3.23549,3.11989 -5.63274,2.27674 z m 27.69385,-1.5875 c -0.64721,-6.66877 -0.0852,-13.82751 -3.91307,-19.45313 -3.14513,-5.84206 -7.96092,-11.28783 -13.83732,-14.70138 -4.93066,-2.38059 -12.32871,1.48134 -18.04251,0.7704 -6.96823,-0.87021 -13.957116,-1.2067 -20.386216,-4.07484 -6.60325,-2.66604 -11.208351,-9.89814 -18.598469,-10.26663 -6.704226,0.43239 -14.278019,0.76341 -21.080945,2.42268 -6.881645,1.34267 -12.628546,5.50112 -17.901573,9.96729 -4.756136,4.99413 -8.408126,10.32736 -11.858231,16.72657 -1.191589,-6.86823 4.615083,-11.94305 8.660003,-17.00648 5.37912,-5.93799 12.66363,-10.51572 20.454041,-12.61584 6.945107,-1.71346 15.44913,-0.55372 21.626913,-2.58373 -4.260422,-4.69281 -8.607485,-9.55304 -10.538211,-15.62298 -2.695141,-5.18941 -2.407895,-12.30837 -10.520525,-9.83091 -7.471684,-2.18327 -8.817022,-11.29272 -10.283465,-17.84167 0.50382,-6.45017 3.81677,-13.43396 10.415641,-15.04859 4.214536,-2.131776 7.947806,9.12893 7.486559,1.00386 0.271487,-6.123724 4.881848,-10.981894 7.789774,-16.254028 4.69005,-6.780722 10.744104,-11.95916 16.916209,-17.331891 5.770746,-4.04638 12.061985,-6.764345 18.671484,-8.771642 7.681571,-3.189735 15.765251,-3.720281 23.953381,-4.25501 6.32001,-0.262182 12.14131,4.050861 17.91624,3.902746 7.358,3.459096 13.996,8.119535 19.82716,13.790827 6.182,3.477043 7.95446,11.289114 10.00996,17.47313 1.34971,5.006422 3.32427,9.888348 3.50936,15.763338 1.38774,5.64072 -1.94061,11.30281 4.9695,12.40101 3.02083,6.11214 2.61734,13.43137 -0.15678,19.73478 -2.26778,4.46946 -8.78623,11.32885 -13.83641,8.46519 -5.73271,2.98058 -7.79761,10.75899 -13.62661,14.32261 -6.47749,4.72647 -12.64168,10.12531 -20.59468,11.70174 -5.30246,1.93342 5.88339,7.18001 7.31007,10.55441 4.45041,5.57579 8.01417,12.00253 7.35075,19.51803 0.49555,1.87747 2.44136,13.91476 -1.69203,7.14014 z m -33.60768,-36.15972 c 3.94193,-0.88513 10.59888,0.0897 15.25074,-2.20486 6.39326,-2.26708 13.529,-3.51567 18.5681,-8.62805 5.31575,-3.3595 10.1767,-7.95813 14.06384,-13.19577 5.08142,-5.50157 7.89165,-12.8364 10.49565,-19.88335 2.52445,-5.97411 2.78414,-12.78333 4.11364,-19.22666 -1.57516,-4.80379 -2.00982,-10.39426 -2.98786,-15.774598 -1.56959,-5.131423 -3.86635,-10.232912 -5.97154,-15.542962 -5.01156,-4.673691 -8.7977,-9.868988 -14.8124,-12.523611 -5.49582,-4.273723 -12.22103,-5.688251 -18.54608,-8.026303 -8.3117,0.243997 -17.0513,-1.339106 -25.04033,1.219897 -6.086922,1.52111 -12.366387,4.06286 -18.09348,6.630017 -5.638616,3.043525 -9.916631,7.613503 -15.159217,11.601025 -4.931475,6.520196 -10.753624,12.621528 -13.448527,20.523792 -1.979531,4.146273 -0.653532,12.778693 -7.3767,6.151573 -4.739469,-4.67306 -11.137138,4.73097 -10.574039,9.42079 -0.427189,5.23998 2.385423,11.1155 5.66977,15.27365 3.847098,4.38304 7.222633,-0.2675 10.164371,-1.02278 0.406937,6.88402 3.841295,12.89805 6.655247,19.06397 3.85129,7.27849 10.410661,11.65528 16.367996,16.80182 6.066314,5.8318 13.898619,7.82277 22.111049,8.43386 4.06404,-2.10649 5.79957,2.6172 8.54977,0.90855 z m 0.4133,-19.30337 c -7.49254,-0.19197 -1.65128,-6.05249 1.8534,-2.33673 4.77107,-2.24402 0.80277,4.54556 -1.8534,2.33673 z m 9.72216,-5.65566 c -4.88092,-1.31334 -13.38095,-0.27143 -15.85231,-4.4312 6.01777,0.058 12.25855,1.31184 18.44601,1.47789 0.61313,1.5569 0.48323,5.11849 -2.5937,2.95331 z m 7.23194,-12.87639 c -5.16607,-0.16505 -10.50863,-0.79858 -14.94885,-3.35329 -3.28322,2.9569 -11.76449,-5.02515 -5.331,-5.46006 0.82494,8.12718 7.17083,0.0746 9.7137,0.59059 -1.67786,6.01372 5.19305,5.80236 8.12651,3.28847 3.19654,3.34481 5.64536,3.10026 8.30569,0.63317 4.28926,3.9042 -2.91298,6.45701 -5.86605,4.30112 z m 15.3067,-13.4955 c -6.65582,-5.38172 1.68319,-18.84771 7.28304,-10.27078 1.88068,3.32556 -2.99206,12.48929 -7.28304,10.27078 z m -96.638732,-3.38046 c -3.871766,-5.83259 2.449736,-10.99417 6.71593,-5.31154 5.234457,7.99531 -6.233138,-2.33706 -4.598107,4.46042 0.757739,1.95907 -1.341929,1.65525 -2.117823,0.85112 z m 45.063309,-5.32091 c -5.046462,-4.3633 4.413592,-17.049755 7.209154,-7.80401 0.589045,3.46583 -2.684071,12.31383 -7.209154,7.80401 z M 149.22433,82.20337 c -6.55233,-3.005197 -12.73719,-3.924059 -19.26371,-6.634776 -6.60711,-5.441695 4.84001,1.321089 7.76048,0.675144 4.48451,1.687985 12.26882,3.417047 14.52768,5.829144 -0.95587,0.686179 -2.01328,0.09328 -3.02445,0.130488 z m -26.71336,-2.68309 c -3.28132,-3.58234 -13.97831,-6.061793 -12.36282,-10.578004 4.12661,3.266113 13.2056,7.562383 13.6064,11.1499 z m 26.51329,-5.436926 c -2.61713,-3.253168 -12.03768,-2.279939 -11.9583,-5.821355 4.3215,1.361897 13.65479,1.636582 13.98677,6.780106 l -0.77776,-0.287323 z m -23.45972,-1.849706 c 0.21344,-2.784268 2.33841,1.271928 0,0 z m 45.78426,71.686092 c 3.6693,-2.51558 7.01565,-6.831 6.79378,-11.27731 3.03924,-3.73078 -1.3871,-18.20875 -4.45532,-9.50588 -0.4034,7.19053 -3.65518,13.16408 -6.82677,19.15781 -3.60134,4.04946 2.71718,2.61381 4.48831,1.62538 z"
       id="path1116"
       sodipodi:nodetypes="cccccccccccccccccccccccccccccccccccccccccccccccccccccccccccccccccccccccccccccccccccccccccccccccccccccccccc" />
  </g>
</svg>
